<svg preserveAspectRatio="none" width="100%" height="100%" overflow="visible" style="display: block;" viewBox="0 0 445 275" fill="none" xmlns="http://www.w3.org/2000/svg">
<g id="Group 48095905">
<ellipse id="Blackhole" cx="283.023" cy="260.341" rx="161.977" ry="14.6588" fill="var(--fill-0, black)"/>
<g id="Medium">
<path id="Ellipse 413" d="M142.531 56.2973C156.852 31.6472 188.684 23.2511 213.637 37.5679C238.589 51.8848 247.188 83.4787 232.867 108.129C218.547 132.779 186.715 141.175 161.762 126.859C136.81 112.542 128.21 80.9474 142.531 56.2973Z" stroke="var(--stroke-0, black)" stroke-width="2"/>
<path id="Ellipse 414" d="M143.706 62.6598C147.497 61.5093 152.099 63.4004 156.551 67.9706C160.96 72.4977 164.994 79.4492 167.548 87.7613C170.103 96.0735 170.665 104.078 169.552 110.281C168.429 116.543 165.675 120.667 161.885 121.817C158.094 122.968 153.491 121.077 149.04 116.506C144.63 111.979 140.597 105.028 138.042 96.7157C135.488 88.4036 134.926 80.3986 136.038 74.1958C137.161 67.9339 139.915 63.8103 143.706 62.6598Z" stroke="var(--stroke-0, black)" stroke-width="2"/>
</g>
<g id="Smallest ">
<path id="Ellipse 415" d="M86.1209 39.8672C96.294 57.3782 90.2583 79.7744 72.6313 89.8881C55.0044 100.002 32.4703 93.9977 22.2972 76.4869C12.1242 58.9761 18.1592 36.5803 35.7859 26.4665C53.4129 16.3528 75.9477 22.3564 86.1209 39.8672Z" stroke="var(--stroke-0, black)" stroke-width="2"/>
<path id="Ellipse 416" d="M81.9191 38.0829C81.3182 40.6656 78.6347 42.7748 74.236 43.8702C69.8958 44.9511 64.1744 44.952 58.123 43.5615C52.0717 42.1711 46.9321 39.6746 43.5098 36.8102C40.0413 33.9071 38.5619 30.8414 39.1627 28.2586C39.7636 25.6758 42.4471 23.5667 46.8458 22.4712C51.186 21.3904 56.9067 21.3894 62.9579 22.7797C69.0094 24.1702 74.1497 26.6668 77.5721 29.5313C81.0405 32.4344 82.52 35.5001 81.9191 38.0829Z" stroke="var(--stroke-0, black)" stroke-width="2"/>
</g>
<g id="Biggest">
<path id="Intersect" d="M239.985 274.116C229.823 267.311 221.071 258.121 215.506 247.183C237.448 246.178 261.548 245.682 287.82 245.682C307.338 245.682 326.049 245.995 343.377 246.567C337.7 258.031 328.286 267.6 318.232 274.551C308.344 274.721 298.257 275 287.82 275C270.747 275 255.438 274.559 239.985 274.116Z" fill="var(--fill-0, #D9D9D9)"/>
<path id="Ellipse 411" d="M273.061 149.762C277.136 153.54 277.984 160.361 275.591 168.69C273.215 176.962 267.708 186.42 259.596 195.06C251.483 203.701 242.368 209.815 234.229 212.742C226.033 215.689 219.127 215.32 215.053 211.541C210.978 207.763 210.13 200.942 212.522 192.613C214.898 184.341 220.406 174.882 228.519 166.242C236.631 157.602 245.746 151.488 253.885 148.561C262.08 145.614 268.986 145.983 273.061 149.762Z" stroke="var(--stroke-0, black)" stroke-width="2"/>
<path id="Subtract" d="M279.362 144.348C318.472 144.348 350.167 175.854 350.167 214.706C350.167 239.351 337.414 261.037 318.101 273.605C295.341 274.038 263.324 273.854 239.789 273.055C220.944 260.409 208.559 238.994 208.558 214.706C208.558 175.854 240.252 144.348 279.362 144.348Z" stroke="var(--stroke-0, black)" stroke-width="2"/>
</g>
</g>
</svg>
