<svg width="7" height="12" viewBox="0 0 7 12" fill="none" xmlns="http://www.w3.org/2000/svg">
<path d="M0.711995 11.0625C0.613904 11.0628 0.51684 11.0437 0.427045 11.0067C0.33725 10.9696 0.256712 10.9153 0.190609 10.8473C0.0627966 10.7173 -0.00487604 10.5451 0.00244631 10.3683C0.00976866 10.1916 0.0914876 10.0248 0.229665 9.90457L5.2424 5.56251L0.228885 1.22118C0.0902426 1.10103 0.00811605 0.934101 0.000572053 0.757104C-0.00697195 0.580108 0.0606846 0.407547 0.188659 0.277384C0.316632 0.14722 0.494441 0.0701159 0.682968 0.0630333C0.871494 0.0559507 1.0553 0.11947 1.19394 0.239617L6.77101 5.07228C6.84321 5.1348 6.90083 5.21069 6.94024 5.29516C6.97965 5.37963 7 5.47084 7 5.56306C7 5.65528 6.97965 5.74649 6.94024 5.83096C6.90083 5.91543 6.84321 5.99132 6.77101 6.05384L1.19394 10.885C1.0628 10.999 0.890707 11.0624 0.711995 11.0625Z" fill="#EA1B75"/>
</svg>
