<?xml version="1.0" encoding="utf-8"?>
<!-- Generator: Adobe Illustrator 28.7.1, SVG Export Plug-In . SVG Version: 9.03 Build 54978)  -->
<svg version="1.1" id="Layer_1" xmlns="http://www.w3.org/2000/svg" xmlns:xlink="http://www.w3.org/1999/xlink" x="0px" y="0px"
	 width="195px" height="93px" viewBox="0 0 195 93" style="enable-background:new 0 0 195 93;" xml:space="preserve">
<style type="text/css">
	.st0{fill:#EA1B75;}
	.st1{fill:#8E1D58;}
	.st2{fill:url(#SVGID_1_);}
	.st3{fill:url(#SVGID_00000142150025266948321050000009542067854952474812_);enable-background:new    ;}
	.st4{fill:url(#SVGID_00000155862285551053678920000010095612670940768953_);}
	.st5{opacity:0.75;fill:url(#SVGID_00000175305408662998555250000013936000845309888408_);enable-background:new    ;}
	.st6{fill:url(#SVGID_00000036950272991161743160000017762001455011620528_);}
	.st7{fill:url(#SVGID_00000126305923731563002880000005720662822670994575_);enable-background:new    ;}
	.st8{fill:url(#SVGID_00000034790674568730364830000015186640037122273962_);}
	.st9{opacity:0.75;fill:url(#SVGID_00000096060337346326897370000009465297989271952819_);enable-background:new    ;}
</style>
<path class="st0" d="M20.5,69.7h1.7v17.7h-1.7V69.7z"/>
<path class="st0" d="M23.5,78.1c0-3,1-4.4,3.6-4.4c3.3,0,3.3,2.4,3.3,3.8V85c0,0.5,0,1.1,0.5,1.1c0.2,0,0.3,0,0.4-0.1v1.5
	c-0.1,0-0.6,0.1-1,0.1c-0.6,0-1.4,0-1.5-1.7h0c-0.5,1.2-1.6,1.9-2.6,1.9c-2,0-2.9-1.5-2.9-3.9c0-1.9,0.6-3.1,2-3.7l2.3-0.8
	c1.2-0.5,1.2-0.9,1.2-2c0-1.2-0.6-2-1.7-2c-1.8,0-1.8,2.1-1.8,2.6v0.1L23.5,78.1L23.5,78.1z M28.7,80.1c-0.6,0.8-2.1,1-2.9,1.6
	c-0.5,0.4-0.8,0.9-0.8,2.1c0,1.3,0.4,2.3,1.5,2.3c1.1,0,2.2-1.2,2.2-2.5V80.1z"/>
<path class="st0" d="M32.2,74.1h1.6v1.6h0c0.4-1.2,1.6-1.9,2.6-1.9c1.2,0,2,0.6,2.3,2.1c0.5-1.2,1.4-2.1,2.5-2.1
	c2.8,0,2.8,2.6,2.8,4.2v9.4h-1.7v-9.1c0-1-0.1-2.7-1.4-2.7c-0.8,0-2,0.6-2,2.7v9.1h-1.7v-9.1c0-1-0.1-2.7-1.4-2.7
	c-0.8,0-2,0.6-2,2.7v9.1h-1.7V74.1L32.2,74.1z"/>
<path class="st0" d="M45.7,69.7h1.7v2.4h-1.7V69.7z M45.7,74.1h1.7v13.2h-1.7V74.1z"/>
<path class="st0" d="M48.5,74.1h1.8l2,10.6h0l2-10.6h1.8l-2.9,13.2h-1.9L48.5,74.1z"/>
<path class="st0" d="M64,87.4h-1.6v-1.6h0c-0.4,1.2-1.6,1.9-2.6,1.9c-2.8,0-2.8-2.6-2.8-4.2v-9.4h1.7v9.1c0,1,0.1,2.7,1.6,2.7
	c0.9,0,2.1-0.7,2.1-2.7v-9.1H64L64,87.4L64,87.4z"/>
<path class="st0" d="M72.6,87.4H71v-1.6h0c-0.2,1-1.2,2-2.3,2c-2.5,0-3.5-2.8-3.5-7c0-2.8,0.4-7,3.4-7c1,0,2,0.7,2.4,1.9h0v-5.9h1.7
	V87.4z M68.9,85.9c1.9,0,2.2-2.2,2.2-5.2c0-2.6-0.4-5.2-2.2-5.2c-1.6,0-2,2-2,5.2C66.9,83.9,67.3,85.9,68.9,85.9z"/>
<path class="st0" d="M74.1,69.7h1.7v2.4h-1.7V69.7z M74.1,74.1h1.7v13.2h-1.7V74.1z"/>
<path class="st0" d="M77.4,74.1H79v1.6h0c0.4-1.2,1.6-1.9,2.6-1.9c2.8,0,2.8,2.6,2.8,4.2v9.4h-1.7v-9.1c0-1-0.1-2.7-1.6-2.7
	c-0.9,0-2.1,0.7-2.1,2.7v9.1h-1.7V74.1L77.4,74.1z"/>
<path class="st0" d="M87.3,81c0,2,0,5.1,2.1,5.1c1.6,0,1.8-2.1,1.8-3.1h1.7c0,1.4-0.7,4.7-3.6,4.7c-2.6,0-3.7-2.2-3.7-6.8
	c0-3.3,0.5-7.1,3.8-7.1c3.3,0,3.6,3.5,3.6,6.4V81L87.3,81L87.3,81z M91.2,79.4v-0.7c0-1.5-0.4-3.2-1.9-3.2c-1.8,0-2,2.7-2,3.5v0.5
	H91.2z"/>
<path class="st0" d="M99,83.7c0,1.2,0.3,2.5,1.5,2.5c1.1,0,1.5-1.1,1.5-2.4c0-1.6-0.4-2.5-1.7-2.5h-0.7v-1.5h0.6
	c1.1,0,1.5-1,1.5-2.3c0-1-0.3-1.9-1.2-1.9c-1.1,0-1.4,1.1-1.4,2.3h-1.6c0-2.5,1-3.8,3.1-3.8c1.3,0,2.9,0.7,2.9,3.4
	c0,1.4-0.6,2.7-1.7,2.9v0.1c1.1,0.1,1.9,1.2,1.9,3.1c0,2.6-1.1,4.1-3.2,4.1c-1.9,0-3-1.2-3-4L99,83.7L99,83.7z"/>
<path class="st0" d="M107.5,74.1c2,0,3.2,1.6,3.2,6.8s-1.1,6.8-3.2,6.8s-3.2-1.6-3.2-6.8S105.5,74.1,107.5,74.1z M107.5,86.1
	c1.2,0,1.5-1.4,1.5-5.3c0-3.9-0.3-5.3-1.5-5.3c-1.2,0-1.5,1.4-1.5,5.3C106.1,84.7,106.4,86.1,107.5,86.1z"/>
<path class="st0" d="M114.6,74.1c2,0,3.2,1.6,3.2,6.8s-1.1,6.8-3.2,6.8s-3.2-1.6-3.2-6.8S112.6,74.1,114.6,74.1z M114.6,86.1
	c1.2,0,1.5-1.4,1.5-5.3c0-3.9-0.3-5.3-1.5-5.3c-1.2,0-1.5,1.4-1.5,5.3C113.2,84.7,113.5,86.1,114.6,86.1z"/>
<path class="st0" d="M121.6,74.1h1.6v1.6h0c0.4-1.2,1.6-1.9,2.6-1.9c1.2,0,2,0.6,2.3,2.1c0.5-1.2,1.4-2.1,2.5-2.1
	c2.8,0,2.8,2.6,2.8,4.2v9.4h-1.7v-9.1c0-1-0.1-2.7-1.4-2.7c-0.8,0-2,0.6-2,2.7v9.1h-1.7v-9.1c0-1-0.1-2.7-1.4-2.7
	c-0.8,0-2,0.6-2,2.7v9.1h-1.7V74.1L121.6,74.1z"/>
<path class="st0" d="M142.2,86.5c0,4-1.5,5.4-3.6,5.4c-0.7,0-3.2,0-3.5-3.3h1.7c0.1,1.2,0.8,1.7,1.7,1.7c2.2,0,2.1-2.1,2.1-3v-1.7h0
	c-0.4,1.1-1.4,1.8-2.4,1.8c-3.1,0-3.3-4.9-3.3-6.6c0-3.6,0.8-7,3.5-7c1.2,0,2.1,1,2.3,2h0v-1.7h1.6V86.5L142.2,86.5z M136.5,80.7
	c0,2.2,0.3,4.8,1.9,4.8c1.8,0,2.2-2.1,2.2-4.8c0-2.6-0.4-5.2-2.2-5.2C136.9,75.5,136.5,77.6,136.5,80.7z"/>
<path class="st0" d="M148.6,70.3h1.7v3.9h1.9v1.6h-1.9v8.5c0,1.1,0.2,1.5,1.1,1.5c0.4,0,0.6,0,0.7-0.1v1.7c-0.2,0-0.7,0.1-1.4,0.1
	c-1.7,0-2.2-0.9-2.2-2.6v-9.1H147v-1.6h1.6V70.3z"/>
<path class="st0" d="M153.1,78.1c0-3,1-4.4,3.6-4.4c3.3,0,3.3,2.4,3.3,3.8V85c0,0.5,0,1.1,0.5,1.1c0.2,0,0.3,0,0.4-0.1v1.5
	c-0.1,0-0.6,0.1-1,0.1c-0.6,0-1.4,0-1.5-1.7h0c-0.5,1.2-1.6,1.9-2.6,1.9c-2,0-2.9-1.5-2.9-3.9c0-1.9,0.6-3.1,2-3.7l2.3-0.8
	c1.2-0.5,1.2-0.9,1.2-2c0-1.2-0.6-2-1.7-2c-1.8,0-1.8,2.1-1.8,2.6v0.1L153.1,78.1L153.1,78.1z M158.2,80.1c-0.6,0.8-2.1,1-2.9,1.6
	c-0.5,0.4-0.8,0.9-0.8,2.1c0,1.3,0.4,2.3,1.5,2.3c1.1,0,2.2-1.2,2.2-2.5V80.1z"/>
<path class="st0" d="M162,69.7h1.7v5.9h0c0.4-1.1,1.4-1.9,2.5-1.9c2.9,0,3.3,4.2,3.3,7c0,3.7-1,7-3.5,7c-1.2,0-2.1-1-2.3-2h0v1.6
	H162V69.7z M165.7,85.9c1.6,0,2-2.2,2-5.2c0-3.2-0.4-5.2-2-5.2c-1.8,0-2.2,2.6-2.2,5.2C163.6,83.5,163.9,85.9,165.7,85.9z"/>
<path class="st0" d="M170.7,69.7h1.7v17.7h-1.7V69.7z"/>
<path class="st0" d="M175.3,81c0,2,0,5.1,2.1,5.1c1.6,0,1.8-2.1,1.8-3.1h1.7c0,1.4-0.7,4.7-3.6,4.7c-2.6,0-3.7-2.2-3.7-6.8
	c0-3.3,0.5-7.1,3.8-7.1c3.3,0,3.6,3.5,3.6,6.4V81L175.3,81L175.3,81z M179.2,79.4v-0.7c0-1.5-0.4-3.2-1.9-3.2c-1.8,0-2,2.7-2,3.5
	v0.5H179.2z"/>
<path class="st0" d="M182.8,70.3h1.7v3.9h1.9v1.6h-1.9v8.5c0,1.1,0.2,1.5,1.1,1.5c0.4,0,0.6,0,0.7-0.1v1.7c-0.2,0-0.7,0.1-1.4,0.1
	c-1.7,0-2.2-0.9-2.2-2.6v-9.1h-1.6v-1.6h1.6V70.3z"/>
<path class="st0" d="M191.9,78c0-1.7-0.4-2.6-1.6-2.6c-0.5,0-1.7,0.2-1.7,2c0,1.6,1.3,1.9,2.6,2.4c1.3,0.5,2.6,1.1,2.6,3.7
	c0,2.8-1.5,4.2-3.5,4.2c-3.6,0-3.7-3.3-3.7-4.7h1.7c0,1.6,0.4,3.1,2,3.1c0.5,0,1.8-0.3,1.8-2.2c0-1.8-1.3-2.2-2.6-2.7
	c-1.3-0.5-2.6-1-2.6-3.8c0-2.5,1.6-3.7,3.4-3.7c3.1,0,3.2,2.7,3.3,4.2L191.9,78L191.9,78z"/>
<path class="st1" d="M50.3,8.2L50.3,8.2c-0.4,0-0.9,0.1-1.2,0.4c-0.3,0.3-0.5,0.7-0.5,1.2v24.9c0,0.4,0.2,0.8,0.4,1.1
	c0.3,0.3,0.7,0.5,1.2,0.5c0,0,0.1,0,0.1,0v0c5.3,0,16.3-2.7,16.3-14.1C66.6,10.9,55.7,8.2,50.3,8.2L50.3,8.2z M51.8,33.1V11.6
	c4.5,0.4,11.6,2.9,11.6,10.7C63.4,30.2,56.4,32.6,51.8,33.1z"/>
<path class="st1" d="M88,22.6c-0.5-1.2-1.2-2.3-2.1-3.2c-0.9-0.9-2-1.6-3.2-2.1c-1.2-0.5-2.5-0.8-3.8-0.8c-1.3,0-2.6,0.3-3.8,0.8
	c-1.2,0.5-2.3,1.2-3.2,2.1c-0.9,0.9-1.6,2-2.1,3.2c-0.5,1.2-0.8,2.5-0.8,3.9c0,1.3,0.3,2.6,0.8,3.8c0.5,1.2,1.2,2.3,2.1,3.2
	c0.9,0.9,2,1.6,3.2,2.1c1.2,0.5,2.5,0.8,3.8,0.8c1.3,0,2.6-0.3,3.8-0.8c1.2-0.5,2.3-1.2,3.2-2.1c0.9-0.9,1.6-2,2.1-3.2
	c0.5-1.2,0.8-2.5,0.8-3.9C88.8,25.1,88.5,23.8,88,22.6z M85,29c-0.3,0.8-0.8,1.5-1.4,2.1c-0.6,0.6-1.3,1.1-2.1,1.4
	c-1.6,0.7-3.5,0.7-5.1,0c-0.8-0.3-1.5-0.8-2.1-1.4c-0.6-0.6-1.1-1.3-1.4-2.2c-0.3-0.8-0.5-1.7-0.5-2.6c0-0.9,0.2-1.8,0.5-2.6
	c0.3-0.8,0.8-1.5,1.4-2.1c0.6-0.6,1.3-1.1,2.1-1.4c0.8-0.3,1.7-0.5,2.6-0.5c0.9,0,1.8,0.2,2.6,0.5c0.8,0.3,1.5,0.8,2.1,1.4
	c0.6,0.6,1.1,1.3,1.4,2.2c0.3,0.8,0.5,1.7,0.5,2.6C85.5,27.4,85.4,28.2,85,29z"/>
<path class="st1" d="M109,17.3c-0.2-0.3-0.4-0.5-0.6-0.6c-0.2-0.1-0.5-0.2-0.7-0.2c-0.6,0-1.2,0.3-1.5,0.9l-6.8,13.7l-6.8-13.7
	c-0.1-0.3-0.3-0.5-0.6-0.6c-0.5-0.3-1.1-0.3-1.6-0.1h0c-0.6,0.3-0.9,0.8-0.9,1.5c0,0.3,0.1,0.5,0.2,0.7l8.3,16.6
	c0.3,0.6,0.8,0.9,1.4,0.9c0.3,0,0.6-0.1,0.8-0.2l0,0c0.2-0.2,0.4-0.4,0.6-0.7l8.3-16.6c0.1-0.2,0.2-0.5,0.2-0.7
	C109.3,17.8,109.2,17.5,109,17.3L109,17.3z"/>
<path class="st1" d="M129,22.6c-0.5-1.2-1.2-2.3-2.1-3.2c-0.9-0.9-2-1.6-3.2-2.1c-1.2-0.5-2.5-0.8-3.8-0.8c-1.3,0-2.6,0.3-3.8,0.8
	c-1.2,0.5-2.3,1.2-3.2,2.1c-0.9,0.9-1.6,2-2.1,3.2c-0.5,1.2-0.8,2.5-0.8,3.9c0,1.3,0.3,2.6,0.8,3.8c0.5,1.2,1.2,2.3,2.1,3.2
	c0.9,0.9,2,1.6,3.2,2.1c1.2,0.5,2.5,0.8,3.8,0.8c1.3,0,2.6-0.3,3.8-0.8c1-0.4,2-1.1,2.8-1.8v1c0,0.4,0.2,0.8,0.4,1.1
	c0.3,0.3,0.7,0.5,1.2,0.5c0.5,0,0.9-0.2,1.2-0.5c0.3-0.3,0.4-0.7,0.4-1.1v-8.3C129.8,25.1,129.5,23.8,129,22.6L129,22.6z M126,29
	c-0.3,0.8-0.8,1.5-1.4,2.1c-0.6,0.6-1.3,1.1-2.1,1.4c-1.6,0.7-3.5,0.7-5.1,0c-0.8-0.3-1.5-0.8-2.1-1.4c-0.6-0.6-1.1-1.3-1.4-2.2
	c-0.3-0.8-0.5-1.7-0.5-2.6c0-0.9,0.2-1.8,0.5-2.6c0.3-0.8,0.8-1.5,1.4-2.1c0.6-0.6,1.3-1.1,2.1-1.4c0.8-0.3,1.7-0.5,2.6-0.5
	c0.9,0,1.8,0.2,2.6,0.5c0.8,0.3,1.5,0.8,2.1,1.4c0.6,0.6,1.1,1.3,1.4,2.2c0.3,0.8,0.5,1.7,0.5,2.6C126.5,27.4,126.3,28.2,126,29z"/>
<path class="st1" d="M169.7,22.6c-0.5-1.2-1.2-2.3-2.1-3.2c-0.9-0.9-2-1.6-3.2-2.1c-1.2-0.5-2.5-0.8-3.8-0.8c-1.3,0-2.6,0.3-3.8,0.8
	c-1.2,0.5-2.3,1.2-3.2,2.1c-0.9,0.9-1.6,2-2.1,3.2c-0.5,1.2-0.8,2.5-0.8,3.9c0,1.3,0.3,2.6,0.8,3.8c0.5,1.2,1.2,2.3,2.1,3.2
	c0.9,0.9,2,1.6,3.2,2.1c1.2,0.5,2.5,0.8,3.8,0.8c1.3,0,2.6-0.3,3.8-0.8c1.2-0.5,2.3-1.2,3.2-2.1c0.9-0.9,1.6-2,2.1-3.2
	c0.5-1.2,0.8-2.5,0.8-3.9C170.5,25.1,170.2,23.8,169.7,22.6L169.7,22.6z M166.7,29c-0.3,0.8-0.8,1.5-1.4,2.1
	c-0.6,0.6-1.3,1.1-2.1,1.4c-1.6,0.7-3.5,0.7-5.1,0c-0.8-0.3-1.5-0.8-2.1-1.4c-0.6-0.6-1.1-1.3-1.4-2.2c-0.3-0.8-0.5-1.7-0.5-2.6
	c0-0.9,0.2-1.8,0.5-2.6c0.3-0.8,0.8-1.5,1.4-2.1c0.6-0.6,1.3-1.1,2.1-1.4c0.8-0.3,1.7-0.5,2.6-0.5c0.9,0,1.8,0.2,2.6,0.5
	c0.8,0.3,1.5,0.8,2.1,1.4c0.6,0.6,1.1,1.3,1.4,2.2c0.3,0.8,0.5,1.7,0.5,2.6C167.2,27.4,167,28.2,166.7,29z"/>
<path class="st1" d="M150,31.2L150,31.2c-0.3-0.3-0.7-0.5-1.1-0.5c-0.4,0-0.8,0.2-1.2,0.5c-0.6,0.6-1.3,1.1-2.1,1.4
	c-1.6,0.7-3.5,0.7-5.1,0c-0.8-0.3-1.5-0.8-2.1-1.4c-0.6-0.6-1.1-1.3-1.4-2.2c-0.3-0.8-0.5-1.7-0.5-2.6v-6.7h0.6h7.5
	c0.5,0,0.9-0.2,1.2-0.5c0.3-0.3,0.4-0.7,0.4-1.1s-0.2-0.8-0.4-1.1c-0.3-0.3-0.7-0.5-1.2-0.5h-8.1v-5.2c0-0.5-0.2-0.9-0.5-1.2
	c-0.6-0.6-1.6-0.6-2.2,0c-0.3,0.3-0.5,0.7-0.5,1.2v5.2h-2.2c-0.5,0-0.9,0.2-1.2,0.5c-0.3,0.3-0.4,0.7-0.4,1.1s0.2,0.8,0.4,1.1
	c0.3,0.3,0.7,0.5,1.2,0.5h2.2v6.7c0,1.3,0.3,2.6,0.8,3.8c0.5,1.2,1.2,2.3,2.1,3.2c0.9,0.9,2,1.6,3.2,2.1c1.2,0.5,2.5,0.8,3.8,0.8
	c1.3,0,2.6-0.3,3.8-0.8c1.2-0.5,2.3-1.2,3.2-2.2c0.3-0.3,0.4-0.7,0.4-1.1C150.5,31.9,150.3,31.5,150,31.2L150,31.2z"/>
<path class="st0" d="M54.7,62.6h-1.6V61h0c-0.2,1-1.2,2-2.3,2c-2.5,0-3.5-2.8-3.5-7c0-2.8,0.4-7,3.4-7c1,0,2,0.7,2.4,1.9h0V45h1.7
	V62.6z M51,61.2c1.9,0,2.2-2.2,2.2-5.2c0-2.6-0.4-5.2-2.2-5.2c-1.6,0-2,2-2,5.2C49,59.2,49.4,61.2,51,61.2z"/>
<path class="st0" d="M59.5,49c3.1,0,3.9,3.2,3.9,7s-0.8,7-3.9,7c-3.1,0-3.9-3.2-3.9-7S56.4,49,59.5,49z M61.6,56
	c0-2.9-0.3-5.3-2.1-5.3c-1.7,0-2.1,2.5-2.1,5.3s0.3,5.3,2.1,5.3C61.2,61.4,61.6,58.9,61.6,56z"/>
<path class="st0" d="M64.3,45H66v17.7h-1.7V45z"/>
<path class="st0" d="M74.4,62.6h-1.6v-1.6h0c-0.4,1.2-1.6,1.9-2.6,1.9c-2.8,0-2.8-2.6-2.8-4.2v-9.4H69v9.1c0,1,0.1,2.7,1.6,2.7
	c0.9,0,2.1-0.7,2.1-2.7v-9.1h1.7L74.4,62.6L74.4,62.6z"/>
<path class="st0" d="M76.4,45.5h1.7v3.9H80V51h-1.9v8.5c0,1.1,0.2,1.5,1.1,1.5c0.4,0,0.6,0,0.7-0.1v1.7c-0.2,0-0.7,0.1-1.4,0.1
	c-1.7,0-2.2-0.9-2.2-2.6V51h-1.6v-1.6h1.6V45.5z"/>
<path class="st0" d="M81.9,56.3c0,2,0,5.1,2.1,5.1c1.6,0,1.8-2.1,1.8-3.1h1.7c0,1.4-0.7,4.7-3.6,4.7c-2.6,0-3.7-2.2-3.7-6.8
	c0-3.3,0.5-7.1,3.8-7.1c3.3,0,3.6,3.5,3.6,6.4v0.8L81.9,56.3L81.9,56.3z M85.8,54.6v-0.7c0-1.5-0.4-3.2-1.9-3.2c-1.8,0-2,2.7-2,3.5
	v0.5H85.8z"/>
<path class="st0" d="M95.6,61.8c0,4-1.5,5.4-3.6,5.4c-0.7,0-3.2,0-3.5-3.3h1.7c0.1,1.2,0.8,1.7,1.7,1.7c2.2,0,2.1-2.1,2.1-3v-1.7h0
	c-0.4,1.1-1.4,1.8-2.4,1.8c-3.1,0-3.3-4.9-3.3-6.6c0-3.6,0.8-7,3.5-7c1.2,0,2.1,1,2.3,2h0v-1.7h1.6V61.8L95.6,61.8z M89.9,56
	c0,2.2,0.3,4.8,1.9,4.8c1.8,0,2.2-2.1,2.2-4.8c0-2.6-0.4-5.2-2.2-5.2C90.3,50.8,89.9,52.9,89.9,56z"/>
<path class="st0" d="M97,49.4h1.7v2h0c0.5-1.3,1.1-2.3,2.3-2.3c0.3,0,0.6,0,0.7,0.1v2c-0.2,0-0.4-0.1-0.9-0.1
	c-0.8,0-2.2,0.9-2.2,3.1v8.4H97V49.4z"/>
<path class="st0" d="M102.2,53.4c0-3,1-4.4,3.6-4.4c3.3,0,3.3,2.4,3.3,3.8v7.4c0,0.5,0,1.1,0.5,1.1c0.2,0,0.3,0,0.4-0.1v1.5
	c-0.1,0-0.6,0.1-1,0.1c-0.6,0-1.4,0-1.5-1.7h0c-0.5,1.2-1.6,1.9-2.6,1.9c-2,0-2.9-1.5-2.9-3.9c0-1.9,0.6-3.1,2-3.7l2.3-0.8
	c1.2-0.5,1.2-0.9,1.2-2c0-1.2-0.6-2-1.7-2c-1.8,0-1.8,2.1-1.8,2.6v0.1L102.2,53.4L102.2,53.4z M107.3,55.4c-0.6,0.8-2.1,1-2.9,1.6
	c-0.5,0.4-0.8,0.9-0.8,2.1c0,1.3,0.4,2.3,1.5,2.3c1.1,0,2.2-1.2,2.2-2.5V55.4z"/>
<path class="st0" d="M109.4,49.4h1.8l2,10.6h0l2-10.6h1.8l-2.9,13.2h-1.9L109.4,49.4L109.4,49.4z"/>
<path class="st0" d="M117.8,45h1.7v2.4h-1.7V45z M117.8,49.4h1.7v13.2h-1.7V49.4z"/>
<path class="st0" d="M120.8,49.4h1.7v2h0c0.5-1.3,1.1-2.3,2.3-2.3c0.3,0,0.6,0,0.7,0.1v2c-0.2,0-0.4-0.1-0.9-0.1
	c-0.8,0-2.2,0.9-2.2,3.1v8.4h-1.7V49.4z"/>
<path class="st0" d="M128.7,59.1h1.6v0.4c0,1,0.4,1.9,1.4,1.9c1.2,0,1.5-1.5,1.5-3c0-1.5-0.3-2.8-1.4-2.8c-0.7,0-1.2,0.5-1.4,1.2
	l-1.5-0.1l0.5-7h5.1v1.7h-3.8l-0.3,3.5l0,0c0.5-0.6,1.1-1,1.8-1c2.2,0,2.8,2.3,2.8,4.4c0,2.7-1,4.7-3.3,4.7c-1.9,0-3-1.2-3-3.6
	L128.7,59.1L128.7,59.1z"/>
<path class="st0" d="M138.9,49.3c2,0,3.2,1.6,3.2,6.8c0,5.2-1.1,6.8-3.2,6.8c-2,0-3.2-1.6-3.2-6.8C135.7,51,136.8,49.3,138.9,49.3z
	 M138.9,61.4c1.2,0,1.5-1.4,1.5-5.3c0-3.9-0.3-5.3-1.5-5.3c-1.2,0-1.5,1.4-1.5,5.3C137.4,60,137.7,61.4,138.9,61.4z"/>
<path class="st0" d="M145.6,49.4h1.6v1.6h0c0.4-1.2,1.6-1.9,2.6-1.9c1.2,0,2,0.6,2.3,2.1c0.5-1.2,1.4-2.1,2.5-2.1
	c2.8,0,2.8,2.6,2.8,4.2v9.4h-1.7v-9.1c0-1-0.1-2.7-1.4-2.7c-0.8,0-2,0.6-2,2.7v9.1h-1.7v-9.1c0-1-0.1-2.7-1.4-2.7
	c-0.8,0-2,0.6-2,2.7v9.1h-1.7V49.4z"/>
<path class="st0" d="M166,61.8c0,4-1.5,5.4-3.6,5.4c-0.7,0-3.2,0-3.5-3.3h1.7c0.1,1.2,0.8,1.7,1.7,1.7c2.2,0,2.1-2.1,2.1-3v-1.7h0
	c-0.4,1.1-1.4,1.8-2.4,1.8c-3.1,0-3.3-4.9-3.3-6.6c0-3.6,0.8-7,3.5-7c1.2,0,2.1,1,2.3,2h0v-1.7h1.6V61.8L166,61.8z M160.3,56
	c0,2.2,0.3,4.8,1.9,4.8c1.8,0,2.2-2.1,2.2-4.8c0-2.6-0.4-5.2-2.2-5.2C160.7,50.8,160.3,52.9,160.3,56z"/>
<path class="st0" d="M166.8,62.5h1.7l4.3-13.5h-1.7L166.8,62.5z"/>
<radialGradient id="SVGID_1_" cx="-893.1724" cy="551.1785" r="1.0008" gradientTransform="matrix(-4.1167 -20.5348 -20.4816 4.106 7633.5273 -20583.582)" gradientUnits="userSpaceOnUse">
	<stop  offset="0" style="stop-color:#FCF0F7"/>
	<stop  offset="8.100000e-02" style="stop-color:#FBEBF4"/>
	<stop  offset="0.174" style="stop-color:#FADDEB"/>
	<stop  offset="0.273" style="stop-color:#F8C6DD"/>
	<stop  offset="0.376" style="stop-color:#F5A6CA"/>
	<stop  offset="0.482" style="stop-color:#F27CB0"/>
	<stop  offset="0.589" style="stop-color:#EE4B92"/>
	<stop  offset="0.68" style="stop-color:#EA1B75"/>
	<stop  offset="0.697" style="stop-color:#EA1F76"/>
	<stop  offset="0.715" style="stop-color:#EB2B7C"/>
	<stop  offset="0.733" style="stop-color:#ED4086"/>
	<stop  offset="0.751" style="stop-color:#EF5D94"/>
	<stop  offset="0.769" style="stop-color:#F382A6"/>
	<stop  offset="0.779" style="stop-color:#F599B1"/>
	<stop  offset="0.782" style="stop-color:#ED8BA8"/>
	<stop  offset="0.794" style="stop-color:#DA6690"/>
	<stop  offset="0.806" style="stop-color:#CA497E"/>
	<stop  offset="0.817" style="stop-color:#BF3471"/>
	<stop  offset="0.829" style="stop-color:#B92869"/>
	<stop  offset="0.84" style="stop-color:#B72467"/>
	<stop  offset="0.88" style="stop-color:#A42060"/>
	<stop  offset="0.931" style="stop-color:#931E5A"/>
	<stop  offset="0.97" style="stop-color:#8E1D58"/>
</radialGradient>
<path class="st2" d="M29.2,39.1c8.9-5.1,17.8-17.7,10.7-27.7C34,3,20-1.9,10.4,2.3C-0.8,7.1-1.8,19.7,2,29.9
	C6.2,41.2,19,45,29.2,39.1z"/>
<radialGradient id="SVGID_00000075137223795350297460000005201990988843290502_" cx="-897.4741" cy="544.9433" r="1" gradientTransform="matrix(-3.2802 -17.7761 -17.7294 3.2715 6738.9565 -17716.4238)" gradientUnits="userSpaceOnUse">
	<stop  offset="0" style="stop-color:#EA1B75"/>
	<stop  offset="7.700000e-02" style="stop-color:#EA2279;stop-opacity:0.9235"/>
	<stop  offset="0.203" style="stop-color:#EB3685;stop-opacity:0.7293"/>
	<stop  offset="0.364" style="stop-color:#EC5799;stop-opacity:0.4624"/>
	<stop  offset="0.552" style="stop-color:#EF84B5;stop-opacity:0.1918"/>
	<stop  offset="0.762" style="stop-color:#F1BDD7;stop-opacity:1.768900e-02"/>
	<stop  offset="0.847" style="stop-color:#F3D7E7;stop-opacity:0"/>
</radialGradient>
<path style="fill:url(#SVGID_00000075137223795350297460000005201990988843290502_);enable-background:new    ;" d="M29.8,35.3
	C38,29.9,42.2,18.5,36.2,10C30.9,2.5,19.8-0.5,11.8,4.2C3.4,9.1,1.4,20.6,5.3,29.1C9.8,38.6,21.3,40.9,29.8,35.3z"/>
<radialGradient id="SVGID_00000033367085645185473420000010007791117355773870_" cx="-923.47" cy="514.1237" r="1" gradientTransform="matrix(-1.893 -10.2585 -10.2316 1.888 3533.7095 -10423.0566)" gradientUnits="userSpaceOnUse">
	<stop  offset="0" style="stop-color:#FFFFFF"/>
	<stop  offset="2.500000e-02" style="stop-color:#FEF9FA"/>
	<stop  offset="0.236" style="stop-color:#FAD2DB"/>
	<stop  offset="0.404" style="stop-color:#F7BAC8"/>
	<stop  offset="0.508" style="stop-color:#F7B2C1"/>
	<stop  offset="0.653" style="stop-color:#F7B3C2"/>
	<stop  offset="0.705" style="stop-color:#F8BAC8"/>
	<stop  offset="0.743" style="stop-color:#F9C6D2"/>
	<stop  offset="0.773" style="stop-color:#FBD7DF"/>
	<stop  offset="0.779" style="stop-color:#FCDCE4"/>
	<stop  offset="0.789" style="stop-color:#F8B6CE"/>
	<stop  offset="0.8" style="stop-color:#F592B9"/>
	<stop  offset="0.812" style="stop-color:#F271A6"/>
	<stop  offset="0.826" style="stop-color:#EF5697"/>
	<stop  offset="0.841" style="stop-color:#ED408A"/>
	<stop  offset="0.859" style="stop-color:#EB2F80"/>
	<stop  offset="0.882" style="stop-color:#EA2379"/>
	<stop  offset="0.913" style="stop-color:#EA1C76"/>
	<stop  offset="1" style="stop-color:#EA1B75"/>
</radialGradient>
<path style="fill:url(#SVGID_00000033367085645185473420000010007791117355773870_);" d="M26.4,29.9c4.8-3.1,7.2-9.7,3.7-14.6
	c-3.1-4.3-9.5-6.1-14.1-3.4c-4.8,2.8-6,9.4-3.7,14.4C14.8,31.8,21.5,33.1,26.4,29.9"/>
<radialGradient id="SVGID_00000088815522380546294670000003260714068937685127_" cx="-923.47" cy="514.1237" r="1" gradientTransform="matrix(-1.893 -10.2585 -10.2316 1.888 3533.7095 -10423.0566)" gradientUnits="userSpaceOnUse">
	<stop  offset="0.22" style="stop-color:#FFFFFF"/>
	<stop  offset="0.228" style="stop-color:#FFFFFF;stop-opacity:0.9643"/>
	<stop  offset="0.236" style="stop-color:#FFFFFF;stop-opacity:0.8649"/>
	<stop  offset="0.237" style="stop-color:#FFFFFF;stop-opacity:0.92"/>
	<stop  offset="0.28" style="stop-color:#FEFDFC;stop-opacity:0.7921"/>
	<stop  offset="0.344" style="stop-color:#FEF7F7;stop-opacity:0.6545"/>
	<stop  offset="0.422" style="stop-color:#FCEFED;stop-opacity:0.4556"/>
	<stop  offset="0.511" style="stop-color:#FBE3E1;stop-opacity:0.2401"/>
	<stop  offset="0.607" style="stop-color:#F9D4D0;stop-opacity:6.553600e-02"/>
	<stop  offset="0.701" style="stop-color:#F7C4BF;stop-opacity:0"/>
</radialGradient>
<path style="opacity:0.75;fill:url(#SVGID_00000088815522380546294670000003260714068937685127_);enable-background:new    ;" d="
	M26.4,29.9c4.8-3.1,7.2-9.7,3.7-14.6c-3.1-4.3-9.5-6.1-14.1-3.4c-4.8,2.8-6,9.4-3.7,14.4C14.8,31.8,21.5,33.1,26.4,29.9"/>
</svg>
