<svg width="62" height="54" viewBox="0 0 62 54" fill="none" xmlns="http://www.w3.org/2000/svg">
<g clip-path="url(#clip0_5104_10359)">
<path d="M1.1416 53.7578H60.6691" stroke="#E31937" stroke-width="0.88"/>
<path d="M0 15.3281H5.03742L11.5151 33.8096L18.0867 15.3281H23.1186L13.8418 41.3415H9.11655L0 15.3281Z" fill="#E31937"/>
<path d="M27.1281 16.594C27.4955 16.59 27.8595 16.6625 28.197 16.8067C28.5345 16.9509 28.8378 17.1638 29.0876 17.4316C29.3534 17.6984 29.5626 18.0155 29.7029 18.3641C29.8433 18.7128 29.9118 19.0858 29.9045 19.4613C29.9114 19.8323 29.8433 20.201 29.7043 20.5455C29.5654 20.8899 29.3583 21.2031 29.0954 21.4666C28.8488 21.7315 28.5492 21.9422 28.2159 22.0851C27.8826 22.228 27.5229 22.3 27.1599 22.2964C26.7892 22.3012 26.4217 22.2282 26.0813 22.0823C25.7409 21.9364 25.4352 21.7207 25.1843 21.4495C24.9177 21.1783 24.7081 20.857 24.5678 20.5045C24.4274 20.1519 24.3591 19.7751 24.3668 19.396C24.3606 19.0286 24.429 18.6638 24.5681 18.3234C24.7071 17.983 24.9139 17.674 25.1759 17.415C25.4264 17.1511 25.7292 16.9419 26.0653 16.8006C26.4013 16.6593 26.7633 16.5889 27.1281 16.594ZM24.9489 23.8106H29.3046V41.3438H24.9489V23.8106Z" fill="#E31937"/>
<path d="M34.5012 16.594C34.8684 16.5901 35.2324 16.6626 35.5697 16.8068C35.9071 16.9511 36.2104 17.1639 36.4601 17.4316C36.7258 17.6984 36.935 18.0155 37.0753 18.3642C37.2157 18.7128 37.2842 19.0858 37.277 19.4613C37.2839 19.8323 37.2158 20.201 37.0768 20.5455C36.9379 20.8899 36.7308 21.2032 36.4679 21.4666C36.2213 21.7315 35.9217 21.9422 35.5884 22.0851C35.2551 22.228 34.8953 22.3 34.5324 22.2964C34.1618 22.3012 33.7943 22.2282 33.454 22.0822C33.1137 21.9363 32.8082 21.7207 32.5573 21.4495C32.2907 21.1783 32.0811 20.8571 31.9408 20.5045C31.8004 20.1519 31.7321 19.7751 31.7398 19.396C31.7336 19.0287 31.802 18.6639 31.941 18.3235C32.0799 17.9831 32.2865 17.6741 32.5484 17.415C32.799 17.1511 33.1019 16.9419 33.4381 16.8006C33.7742 16.6593 34.1362 16.5889 34.5012 16.594ZM32.3219 23.8106H36.6777V41.3438H32.3219V23.8106Z" fill="#E31937"/>
<path d="M38.8809 15.3281H43.9183L50.397 33.8096L56.9682 15.3287H62L52.7232 41.3415H47.9985L38.8809 15.3281Z" fill="#E31937"/>
<path d="M38.3379 1.22306C44.1289 3.43588 50.3945 8.80695 50.7417 18.6252H47.8602C47.5207 10.9136 43.0253 5.36159 37.565 2.92583C28.1162 -1.28572 13.8915 3.84968 13.3078 18.5893H12.9121C13.2866 3.77721 27.3727 -2.96138 38.3379 1.22306Z" fill="#E31937"/>
<path d="M1.13477 43.9492H2.55439V46.7468H5.00298V43.9492H6.41371V51.3622H5.00577V48.1115H2.55717V51.3633H1.13477V43.9492Z" fill="#E31937"/>
<path d="M13.6869 49.008H9.30118C9.34857 49.3714 9.52907 49.7046 9.80815 49.944C10.1044 50.1829 10.4781 50.3065 10.8594 50.2914C11.1039 50.2945 11.3465 50.2479 11.5723 50.1546C11.7981 50.0613 12.0024 49.9232 12.1727 49.7487L13.3235 50.2942C13.0649 50.6807 12.7108 50.9948 12.2951 51.2064C11.8507 51.4134 11.3639 51.5147 10.8733 51.5024C10.4917 51.5175 10.1111 51.4541 9.75535 51.3163C9.39954 51.1785 9.07617 50.9692 8.80545 50.7014C8.53474 50.4337 8.3225 50.1134 8.182 49.7604C8.04151 49.4074 7.97579 49.0294 7.98895 48.6501C7.9768 48.2672 8.04139 47.8858 8.17897 47.528C8.31655 47.1703 8.52436 46.8433 8.79031 46.5661C9.04821 46.2954 9.36048 46.0817 9.70687 45.9387C10.0533 45.7958 10.426 45.7268 10.8009 45.7363C11.1877 45.7218 11.5732 45.7879 11.9328 45.9302C12.2924 46.0725 12.618 46.288 12.8889 46.5628C13.1619 46.8553 13.3736 47.199 13.5117 47.5737C13.6498 47.9483 13.7114 48.3466 13.6931 48.7452L13.6869 49.008ZM12.3341 47.9386C12.2455 47.6395 12.0566 47.3795 11.7987 47.2018C11.5282 47.0104 11.203 46.9106 10.8711 46.9169C10.5096 46.9102 10.156 47.0227 9.86547 47.2366C9.64312 47.4274 9.47116 47.6693 9.36462 47.9414L12.3341 47.9386Z" fill="#E31937"/>
<path d="M19.3702 45.8811H20.7281V51.3578H19.3702V50.7809C19.1405 51.0125 18.8698 51.2001 18.5716 51.3341C18.2967 51.4479 18.0014 51.5053 17.7035 51.5028C17.3589 51.5033 17.0183 51.4299 16.7048 51.2877C16.3914 51.1454 16.1124 50.9377 15.8871 50.6785C15.3738 50.1208 15.0995 49.3861 15.1225 48.6305C15.0921 47.8681 15.3577 47.1232 15.8643 46.5499C16.087 46.2924 16.3636 46.0864 16.6747 45.9462C16.9859 45.806 17.3241 45.7351 17.6657 45.7384C17.9806 45.7363 18.2925 45.7992 18.5817 45.9232C18.8791 46.0547 19.1479 46.2426 19.373 46.4764L19.3702 45.8811ZM17.9428 46.9947C17.7456 46.9903 17.5497 47.0285 17.3689 47.1069C17.188 47.1852 17.0265 47.3017 16.8955 47.4483C16.6111 47.7677 16.4618 48.1839 16.4787 48.6101C16.4623 49.0414 16.6142 49.4624 16.9027 49.7851C17.0328 49.9327 17.1937 50.0503 17.3742 50.1299C17.5547 50.2095 17.7504 50.2491 17.9478 50.2459C18.1473 50.2508 18.3455 50.2128 18.5289 50.1345C18.7122 50.0562 18.8764 49.9395 19.0102 49.7923C19.3006 49.4658 19.4521 49.0399 19.4325 48.6045C19.4512 48.176 19.2994 47.7573 19.0102 47.4389C18.8742 47.2937 18.7087 47.179 18.5247 47.1024C18.3406 47.0258 18.1423 46.9891 17.9428 46.9947Z" fill="#E31937"/>
<path d="M22.6398 43.7617H23.9965V51.3616H22.6387L22.6398 43.7617Z" fill="#E31937"/>
<path d="M26.5682 43.8594H27.9261V45.8813H28.7375V47.0663H27.9261V51.3603H26.5682V47.0669H25.8721V45.8813H26.5682V43.8594Z" fill="#E31937"/>
<path d="M30.5608 43.7617H31.9187V46.4331C32.1571 46.2196 32.4275 46.0442 32.72 45.9131C32.977 45.8 33.2548 45.7409 33.5359 45.7394C33.7894 45.7344 34.0411 45.782 34.275 45.8793C34.509 45.9766 34.7199 46.1213 34.8943 46.3042C35.2351 46.7024 35.4048 47.2178 35.3667 47.7393V51.3616H34.0261V48.9569C34.0421 48.5243 34.0113 48.0912 33.9343 47.6651C33.8919 47.468 33.7843 47.2906 33.6288 47.1612C33.4747 47.0474 33.2864 46.9889 33.0946 46.9952C32.8309 46.9907 32.5762 47.0902 32.3861 47.2718C32.1775 47.4783 32.0349 47.7413 31.976 48.028C31.9228 48.4021 31.9029 48.7801 31.9164 49.1577V51.3605H30.5586L30.5608 43.7617Z" fill="#E31937"/>
<path d="M42.3962 46.9873L41.2648 47.6174C41.0892 47.4203 40.8745 47.2614 40.6343 47.1505C40.402 47.0594 40.1538 47.0152 39.9042 47.0205C39.6779 47.0107 39.452 47.0465 39.2399 47.1256C39.0278 47.2047 38.8339 47.3254 38.6699 47.4807C38.5137 47.6344 38.3913 47.8186 38.3102 48.0217C38.2292 48.2248 38.1914 48.4424 38.1991 48.6607C38.1913 48.8718 38.2275 49.0822 38.3054 49.2787C38.3834 49.4752 38.5014 49.6536 38.6521 49.8025C38.8105 49.952 38.9976 50.0682 39.2022 50.1443C39.4068 50.2203 39.6248 50.2546 39.843 50.2451C40.113 50.2583 40.3824 50.2079 40.6291 50.0979C40.8759 49.9879 41.0929 49.8215 41.2626 49.6122L42.3339 50.3546C42.0494 50.6882 41.7001 50.9611 41.3069 51.1571C40.9137 51.3531 40.4847 51.4681 40.0456 51.4951C39.6066 51.5222 39.1666 51.4608 38.752 51.3146C38.3375 51.1685 37.9569 50.9405 37.6331 50.6445C37.1958 50.1881 36.9189 49.6033 36.8439 48.9774C36.7688 48.3515 36.8997 47.7183 37.2169 47.1726C37.4782 46.7278 37.8587 46.3639 38.316 46.1215C38.8006 45.8628 39.3436 45.7311 39.8936 45.7387C40.3962 45.7308 40.8934 45.8423 41.3439 46.064C41.7686 46.2767 42.1311 46.5947 42.3962 46.9873Z" fill="#E31937"/>
<path d="M47.7646 45.8839H49.1224V51.3606H47.7646V50.7837C47.5347 51.0154 47.2638 51.203 46.9654 51.3369C46.6905 51.4508 46.3952 51.5082 46.0973 51.5056C45.7527 51.5063 45.412 51.433 45.0985 51.2908C44.785 51.1485 44.5061 50.9406 44.2809 50.6813C43.767 50.1243 43.4919 49.39 43.514 48.6345C43.4838 47.872 43.7493 47.1272 44.2559 46.5538C44.4786 46.2963 44.7552 46.0903 45.0663 45.9501C45.3775 45.8099 45.7156 45.739 46.0572 45.7423C46.3721 45.7403 46.684 45.8032 46.9732 45.9271C47.2707 46.0586 47.5395 46.2465 47.7646 46.4803V45.8839ZM46.3372 46.9975C46.1399 46.993 45.9441 47.0313 45.7632 47.1096C45.5824 47.188 45.4208 47.3045 45.2898 47.4511C45.0052 47.7704 44.8557 48.1866 44.8725 48.6129C44.856 49.0444 45.0082 49.4654 45.2971 49.7879C45.4271 49.9355 45.5879 50.0531 45.7683 50.1327C45.9486 50.2123 46.1443 50.2519 46.3416 50.2487C46.5411 50.2536 46.7393 50.2156 46.9227 50.1373C47.106 50.059 47.2702 49.9423 47.404 49.7951C47.6945 49.4686 47.8459 49.0427 47.8264 48.6073C47.845 48.1788 47.6933 47.7601 47.404 47.4417C47.2681 47.2966 47.1027 47.1819 46.9187 47.1053C46.7348 47.0287 46.5365 46.992 46.3372 46.9975Z" fill="#E31937"/>
<path d="M51.1221 45.8805H52.2946V46.5686C52.4012 46.3205 52.5745 46.1063 52.7955 45.9496C52.9967 45.8112 53.2358 45.7374 53.4805 45.7383C53.6726 45.7425 53.8612 45.7908 54.0314 45.8794L53.6096 47.0621C53.4906 46.993 53.3574 46.9516 53.2201 46.941C53.1037 46.9505 52.9925 46.9925 52.899 47.062C52.8056 47.1316 52.7338 47.226 52.692 47.3343C52.5097 47.8269 52.436 48.3527 52.476 48.8761L52.481 49.1427V51.36H51.1232L51.1221 45.8805Z" fill="#E31937"/>
<path d="M60.6696 49.0114H56.2839C56.3316 49.3746 56.5121 49.7077 56.7908 49.9474C57.0871 50.1864 57.4608 50.3099 57.842 50.2948C58.0866 50.2979 58.3292 50.2513 58.555 50.158C58.7808 50.0647 58.9851 49.9266 59.1554 49.7521L60.304 50.2981C60.0456 50.6847 59.6917 50.9988 59.2761 51.2104C58.8315 51.4173 58.3445 51.5186 57.8537 51.5063C57.4722 51.5213 57.0917 51.4579 56.7359 51.32C56.3801 51.1822 56.0568 50.9729 55.7861 50.7052C55.5154 50.4375 55.3031 50.1172 55.1626 49.7642C55.0221 49.4113 54.9563 49.0333 54.9694 48.654C54.9572 48.2712 55.0218 47.8898 55.1594 47.532C55.297 47.1742 55.5048 46.8472 55.7708 46.5701C56.0287 46.2994 56.3409 46.0856 56.6873 45.9427C57.0337 45.7997 57.4065 45.7307 57.7814 45.7403C58.1682 45.7257 58.5539 45.7917 58.9136 45.934C59.2732 46.0763 59.599 46.2919 59.8699 46.5668C60.143 46.8592 60.3547 47.2029 60.4928 47.5776C60.6309 47.9523 60.6925 48.3505 60.6741 48.7491L60.6696 49.0114ZM59.3168 47.942C59.2284 47.6418 59.0393 47.3808 58.7809 47.2024C58.5103 47.0111 58.1851 46.9112 57.8532 46.9175C57.4918 46.9108 57.1384 47.0232 56.8481 47.2372C56.6257 47.4279 56.4538 47.6699 56.3473 47.942H59.3168Z" fill="#E31937"/>
<path d="M55.7733 50.6903C55.508 50.4222 55.2999 50.1034 55.1618 49.7533C55.0236 49.4031 54.9581 49.0288 54.9692 48.6528C54.9573 48.27 55.022 47.8886 55.1597 47.5308C55.2974 47.1731 55.5052 46.8461 55.7711 46.5689C56.029 46.2982 56.3413 46.0845 56.6877 45.9415C57.0341 45.7985 57.4068 45.7296 57.7817 45.7391C58.1685 45.7247 58.554 45.7908 58.9135 45.9331C59.2731 46.0755 59.5988 46.2909 59.8697 46.5656C60.1428 46.8582 60.3545 47.2019 60.4926 47.5767C60.6306 47.9515 60.6923 48.3498 60.6739 48.7486L60.6683 49.0097H56.2842C56.3316 49.3726 56.5119 49.7055 56.7906 49.9446C57.0865 50.184 57.4601 50.3077 57.8413 50.2925C58.0859 50.2957 58.3285 50.2493 58.5544 50.156C58.7803 50.0628 58.9847 49.9248 59.1552 49.7504L60.3043 50.2964C60.0456 50.6827 59.6918 50.9967 59.2765 51.2087C58.8319 51.4159 58.3449 51.5174 57.8541 51.5052C57.4696 51.5196 57.0862 51.4547 56.7282 51.3146C56.3702 51.1744 56.0452 50.9621 55.7739 50.6908L55.7733 50.6903ZM56.8479 47.2361C56.6256 47.4266 56.4536 47.6684 56.3471 47.9403H59.3188C59.2304 47.6402 59.041 47.3793 58.7823 47.2012C58.5122 47.0094 58.1871 46.9093 57.8552 46.9158C57.493 46.9092 57.1388 47.0215 56.8479 47.2361ZM44.2822 50.6809C43.7687 50.1237 43.4938 49.3894 43.5159 48.634C43.4855 47.8716 43.7506 47.1266 44.2566 46.5529C44.4796 46.2953 44.7563 46.0892 45.0677 45.949C45.379 45.8087 45.7173 45.7377 46.0591 45.7408C46.3739 45.739 46.6856 45.8021 46.9746 45.9261C47.2719 46.058 47.5408 46.2459 47.7664 46.4793V45.8829H49.1232V51.3597H47.7664V50.7843C47.5365 51.0162 47.2653 51.2037 46.9668 51.3376C46.6917 51.4502 46.3966 51.5066 46.0992 51.5035C45.7547 51.5044 45.414 51.4314 45.1005 51.2896C44.7869 51.1477 44.5078 50.9397 44.2822 50.6809ZM45.2906 47.4496C45.0061 47.7689 44.8568 48.1852 44.8738 48.6114C44.8569 49.0437 45.0093 49.4657 45.2989 49.7886C45.429 49.9361 45.5898 50.0537 45.7702 50.1333C45.9506 50.2129 46.1462 50.2525 46.3435 50.2494C46.5429 50.2543 46.741 50.2164 46.9243 50.1381C47.1076 50.0598 47.2717 49.943 47.4053 49.7958C47.6961 49.4693 47.8476 49.0431 47.8277 48.6075C47.8463 48.179 47.6946 47.7605 47.4053 47.4424C47.2696 47.297 47.1042 47.182 46.9203 47.1052C46.7363 47.0285 46.5379 46.9916 46.3385 46.9971C46.1412 46.9925 45.9453 47.0306 45.7643 47.1088C45.5833 47.1871 45.4217 47.303 45.2906 47.4496ZM37.6315 50.6483C37.1942 50.1921 36.9173 49.6074 36.8422 48.9817C36.7672 48.356 36.8981 47.723 37.2152 47.1774C37.4763 46.7317 37.8568 46.3669 38.3143 46.1236C38.799 45.8649 39.3419 45.733 39.892 45.7402C40.3946 45.7324 40.8919 45.8441 41.3422 46.0661C41.7665 46.2793 42.1285 46.5975 42.3935 46.9899L41.2621 47.6206C41.0864 47.4237 40.8718 47.2649 40.6316 47.1542C40.3993 47.0625 40.1508 47.0177 39.9009 47.0225C39.6747 47.0127 39.4488 47.0485 39.2368 47.1276C39.0248 47.2066 38.831 47.3275 38.6672 47.4828C38.5109 47.6365 38.3884 47.8207 38.3074 48.0238C38.2264 48.2269 38.1886 48.4445 38.1964 48.6628C38.1885 48.8737 38.2247 49.0839 38.3026 49.2802C38.3804 49.4765 38.4983 49.6547 38.6488 49.8035C38.8073 49.953 38.9945 50.0692 39.1992 50.1453C39.4039 50.2213 39.6219 50.2556 39.8402 50.2461C40.1103 50.2595 40.3798 50.2092 40.6265 50.0992C40.8733 49.9892 41.0903 49.8226 41.2599 49.6132L42.3317 50.3562C42.0471 50.6896 41.6977 50.9625 41.3044 51.1584C40.9111 51.3543 40.482 51.4692 40.0429 51.4962C39.6039 51.5231 39.1638 51.4616 38.7493 51.3153C38.3347 51.1691 37.9541 50.941 37.6304 50.6449L37.6315 50.6483ZM15.8875 50.6814C15.3741 50.1242 15.0994 49.3899 15.1217 48.6346C15.0902 47.8719 15.3546 47.1263 15.8602 46.5518C16.083 46.2943 16.3596 46.0883 16.6707 45.948C16.9818 45.8078 17.32 45.7367 17.6616 45.7397C17.9765 45.7378 18.2884 45.8009 18.5776 45.925C18.8747 46.0571 19.1434 46.2449 19.3689 46.4782V45.8829H20.7262V51.3597H19.3711V50.7843C19.1413 51.0161 18.8704 51.2037 18.572 51.3376C18.2969 51.4502 18.0019 51.5066 17.7044 51.5035C17.3599 51.5043 17.0193 51.4312 16.7058 51.2894C16.3923 51.1475 16.1131 50.9402 15.8875 50.6814ZM16.8964 47.4502C16.6117 47.7694 16.4622 48.1856 16.479 48.6119C16.4624 49.0439 16.6146 49.4656 16.9036 49.7886C17.0338 49.936 17.1946 50.0535 17.375 50.1331C17.5553 50.2126 17.7509 50.2523 17.9482 50.2494C18.1477 50.2543 18.3459 50.2163 18.5292 50.138C18.7126 50.0597 18.8768 49.943 19.0105 49.7958C19.3009 49.4691 19.4522 49.043 19.4324 48.6075C19.4509 48.1792 19.2994 47.7608 19.0105 47.4424C18.8748 47.2971 18.7094 47.1821 18.5255 47.1054C18.3415 47.0286 18.1432 46.9916 17.9437 46.9971C17.7465 46.9925 17.5507 47.0307 17.3698 47.1089C17.189 47.1872 17.0274 47.3036 16.8964 47.4502ZM8.79267 50.6908C8.52762 50.4226 8.31986 50.1038 8.18186 49.7536C8.04386 49.4035 7.97848 49.0293 7.98964 48.6534C7.97771 48.2705 8.04256 47.889 8.18043 47.5312C8.3183 47.1734 8.52642 46.8465 8.79267 46.5695C9.05056 46.2988 9.36284 46.085 9.70923 45.942C10.0556 45.7991 10.4284 45.7301 10.8033 45.7397C11.19 45.7255 11.5754 45.7917 11.935 45.934C12.2945 46.0763 12.6202 46.2916 12.8913 46.5662C13.1644 46.8587 13.3761 47.2025 13.5142 47.5772C13.6522 47.952 13.7138 48.3504 13.6954 48.7491L13.691 49.0102H9.30186C9.34931 49.3734 9.53006 49.7063 9.80939 49.9451C10.1054 50.1846 10.4793 50.3084 10.8606 50.2931C11.1051 50.2962 11.3476 50.2497 11.5735 50.1565C11.7993 50.0633 12.0036 49.9253 12.174 49.751L13.3231 50.297C13.0646 50.6836 12.7104 50.9977 12.2947 51.2092C11.8505 51.4165 11.3639 51.518 10.8734 51.5057C10.4888 51.5201 10.1053 51.4551 9.74721 51.3149C9.3891 51.1746 9.06409 50.9621 8.79267 50.6908ZM9.86782 47.2366C9.64572 47.4274 9.4738 47.6691 9.36697 47.9409H12.3387C12.2508 47.6409 12.0621 47.38 11.8039 47.2018C11.5333 47.01 11.2079 46.9099 10.8756 46.9163C10.5128 46.9091 10.1577 47.0217 9.86615 47.2366H9.86782ZM51.1232 51.3624V45.8857H52.2941V46.5733C52.4007 46.3253 52.574 46.1113 52.795 45.9549C52.9961 45.8162 53.2352 45.7422 53.48 45.743C53.6722 45.7474 53.8607 45.7958 54.0309 45.8846L53.6091 47.0668C53.49 46.998 53.3569 46.9566 53.2196 46.9457C53.1032 46.9552 52.992 46.9972 52.8986 47.0667C52.8051 47.1363 52.7334 47.2307 52.6915 47.339C52.5098 47.8319 52.4364 48.3578 52.4761 48.8813L52.4805 49.148V51.3647L51.1232 51.3624ZM34.0276 51.3624V48.9588C34.044 48.5266 34.0142 48.094 33.9386 47.6681C33.8957 47.471 33.7883 47.2935 33.6331 47.1636C33.4789 47.0501 33.2906 46.9916 33.0988 46.9977C32.835 46.9929 32.58 47.0924 32.3899 47.2743C32.1813 47.481 32.0385 47.7442 31.9792 48.031C31.9265 48.405 31.9067 48.7828 31.9202 49.1601V51.3624H30.5623V43.7625H31.9202V46.4339C32.1588 46.221 32.4294 46.0463 32.7221 45.9161C32.9791 45.8031 33.2568 45.744 33.5379 45.7424C33.7905 45.7375 34.0413 45.7848 34.2745 45.8814C34.5077 45.9779 34.7181 46.1216 34.8924 46.3034C35.2335 46.7014 35.4034 47.2169 35.3654 47.7384V51.3602L34.0276 51.3624ZM26.5706 51.3624V47.0685H25.8716V45.8829H26.5683V43.861H27.9256V45.8829H28.737V47.0679H27.9256V51.3619L26.5706 51.3624ZM22.6422 51.3624V43.7625H23.9995V51.3624H22.6422ZM5.00848 51.3624V48.1102H2.55433V51.3624H1.13581V43.9495H2.55433V46.7459H5.00848V43.95H6.41976V51.363L5.00848 51.3624ZM48.003 41.3439L38.8814 15.3278H43.9183L50.397 33.8092L56.9687 15.3278H62L52.7237 41.3439H48.003ZM32.3247 41.3439V23.8101H36.6788V41.3439H32.3247ZM24.9517 41.3439V23.8101H29.3085V41.3439H24.9517ZM9.12212 41.3439L0 15.3278H5.03742L11.5151 33.8092L18.0862 15.3278H23.118L13.8423 41.3439H9.12212ZM32.5551 21.4495C32.2888 21.1782 32.0793 20.8569 31.9391 20.5044C31.7988 20.1519 31.7305 19.7751 31.7382 19.396C31.7324 19.0286 31.8012 18.6637 31.9406 18.3233C32.0801 17.9829 32.2872 17.6739 32.5496 17.415C32.8035 17.1538 33.108 16.9463 33.4447 16.8051C33.7814 16.6639 34.1434 16.5919 34.5088 16.5934C34.8743 16.5949 35.2356 16.6699 35.5711 16.8138C35.9067 16.9578 36.2094 17.1677 36.4612 17.4311C36.7269 17.698 36.9361 18.0151 37.0764 18.3637C37.2167 18.7123 37.2853 19.0854 37.2781 19.4608C37.2849 19.8316 37.2167 20.1999 37.0777 20.5441C36.9388 20.8883 36.7318 21.2012 36.469 21.4645C36.2223 21.7294 35.9227 21.94 35.5892 22.0829C35.2558 22.2258 34.896 22.2978 34.5329 22.2943C34.1621 22.2996 33.7942 22.2271 33.4534 22.0815C33.1127 21.9359 32.8066 21.7206 32.5551 21.4495ZM25.1826 21.4495C24.9161 21.1783 24.7065 20.8571 24.5662 20.5045C24.4258 20.152 24.3575 19.7751 24.3652 19.396C24.3588 19.0287 24.4272 18.6639 24.5661 18.3235C24.7051 17.9831 24.9117 17.6741 25.1737 17.415C25.4276 17.1537 25.732 16.9462 26.0687 16.805C26.4054 16.6637 26.7673 16.5917 27.1327 16.5932C27.4981 16.5947 27.8595 16.6697 28.195 16.8137C28.5304 16.9577 28.8331 17.1677 29.0848 17.4311C29.3507 17.6978 29.56 18.0149 29.7004 18.3636C29.8409 18.7122 29.9095 19.0853 29.9023 19.4608C29.9094 19.8315 29.8416 20.1998 29.7029 20.544C29.5642 20.8881 29.3574 21.2012 29.0948 21.4645C28.8484 21.7294 28.549 21.9401 28.2157 22.083C27.8825 22.2259 27.5228 22.2979 27.1599 22.2943C26.7896 22.2992 26.4223 22.2266 26.0821 22.081C25.7419 21.9355 25.4364 21.7203 25.1854 21.4495H25.1826ZM47.8611 18.6249C47.5188 10.916 43.0234 5.36123 37.5658 2.92547C28.1187 -1.28608 13.8946 3.84987 13.3109 18.5878H12.9108C13.2869 3.77851 27.3736 -2.96119 38.3383 1.2227C44.1297 3.43552 50.3948 8.80659 50.742 18.6243L47.8611 18.6249Z" fill="#E31937"/>
</g>
<defs>
<clipPath id="clip0_5104_10359">
<rect width="62" height="54" fill="white"/>
</clipPath>
</defs>
</svg>
