<svg xmlns="http://www.w3.org/2000/svg" id="Layer_1" version="1.1" viewBox="0 0 133 62"><defs><radialGradient id="radial-gradient" cx="-1689.326" cy="539.046" r=".195" fx="-1689.326" fy="539.046" gradientTransform="scale(-72.943 72.943) rotate(-78.633 -1173.753 -761.629)" gradientUnits="userSpaceOnUse"><stop offset="0" stop-color="#d49e93"/><stop offset=".117" stop-color="#d39891"/><stop offset=".25" stop-color="#d48a8a"/><stop offset=".392" stop-color="#d67383"/><stop offset=".538" stop-color="#d85577"/><stop offset=".678" stop-color="#db2e69"/><stop offset=".698" stop-color="#dc326b"/><stop offset=".717" stop-color="#de4074"/><stop offset=".738" stop-color="#e35481"/><stop offset=".758" stop-color="#ea7095"/><stop offset=".778" stop-color="#f495af"/><stop offset=".781" stop-color="#ee8ca9"/><stop offset=".794" stop-color="#da6692"/><stop offset=".806" stop-color="#cc4b7f"/><stop offset=".818" stop-color="#c03572"/><stop offset=".83" stop-color="#b92969"/><stop offset=".842" stop-color="#b72668"/><stop offset=".886" stop-color="#a32260"/><stop offset=".932" stop-color="#931e5a"/><stop offset=".97" stop-color="#8e1d59"/></radialGradient><radialGradient id="radial-gradient1" cx="-1664.795" cy="667.961" r=".425" fx="-1664.795" fy="667.961" gradientTransform="rotate(-100.484 -32229.63 -10411.278) scale(29.041)" gradientUnits="userSpaceOnUse"><stop offset="0" stop-color="#ef5397"/><stop offset=".075" stop-color="#ef589a" stop-opacity=".961"/><stop offset=".2" stop-color="#ef66a0" stop-opacity=".857"/><stop offset=".358" stop-color="#ef7bae" stop-opacity=".686"/><stop offset=".544" stop-color="#f09bc3" stop-opacity=".45"/><stop offset=".75" stop-color="#f2c3db" stop-opacity=".151"/><stop offset=".847" stop-color="#f2d7e8" stop-opacity="0"/></radialGradient><radialGradient id="radial-gradient2" cx="-1664.819" cy="667.963" r=".244" fx="-1664.819" fy="667.963" gradientTransform="rotate(-100.484 -32229.63 -10411.278) scale(29.041)" gradientUnits="userSpaceOnUse"><stop offset="0" stop-color="#fff"/><stop offset=".025" stop-color="#fffafc"/><stop offset=".236" stop-color="#fbd3db"/><stop offset=".404" stop-color="#f7bac8"/><stop offset=".508" stop-color="#f7b2c1"/><stop offset=".653" stop-color="#f8b3c2"/><stop offset=".705" stop-color="#f8bbc8"/><stop offset=".743" stop-color="#fac7d3"/><stop offset=".773" stop-color="#fbd8df"/><stop offset=".779" stop-color="#fcdde4"/><stop offset=".78" stop-color="#fcdbe2"/><stop offset=".79" stop-color="#f5b0c8"/><stop offset=".801" stop-color="#f28eb2"/><stop offset=".813" stop-color="#ec6c9d"/><stop offset=".827" stop-color="#e9528d"/><stop offset=".842" stop-color="#e63d7e"/><stop offset=".86" stop-color="#e42b74"/><stop offset=".882" stop-color="#e2206d"/><stop offset=".913" stop-color="#e11568"/><stop offset="1" stop-color="#e11668"/></radialGradient><radialGradient id="radial-gradient3" cx="-1664.819" cy="667.963" r=".244" fx="-1664.819" fy="667.963" gradientTransform="rotate(-100.484 -32229.63 -10411.278) scale(29.041)" gradientUnits="userSpaceOnUse"><stop offset=".22" stop-color="#fff"/><stop offset=".227" stop-color="#fff" stop-opacity=".983"/><stop offset=".235" stop-color="#fff" stop-opacity=".933"/><stop offset=".237" stop-color="#fff" stop-opacity=".92"/><stop offset=".28" stop-color="#fffdfd" stop-opacity=".89"/><stop offset=".344" stop-color="#fff8f6" stop-opacity=".809"/><stop offset=".422" stop-color="#fcefed" stop-opacity=".675"/><stop offset=".511" stop-color="#fbe2df" stop-opacity=".49"/><stop offset=".607" stop-color="#f9d4d0" stop-opacity=".256"/><stop offset=".701" stop-color="#f7c4c0" stop-opacity="0"/></radialGradient><style>.st0{fill:#ea1d75}.st5{fill:#8e1d59}</style></defs><g style="isolation:isolate"><g id="Layer_11"><path d="M14.407 46.899h1.144v11.997h-1.144V46.899ZM16.479 52.612c0-2.05.707-2.957 2.45-2.957 2.219 0 2.219 1.646 2.219 2.587v5.024c0 .37 0 .721.353.721.149 0 .217-.034.273-.083v1.007c-.081.017-.383.083-.666.083-.436 0-.98 0-1.034-1.161h-.027c-.368.807-1.075 1.295-1.756 1.295-1.36 0-1.987-1.007-1.987-2.621 0-1.261.436-2.133 1.375-2.487l1.539-.57c.831-.319.831-.604.831-1.363 0-.841-.408-1.329-1.17-1.329-1.253 0-1.253 1.446-1.253 1.765v.083h-1.144l-.005.005Zm3.525 1.379c-.421.553-1.431.67-1.945 1.058-.368.285-.559.638-.559 1.429 0 .907.259 1.546 1.034 1.546.748 0 1.47-.79 1.47-1.714v-2.319ZM22.376 49.891h1.09v1.058h.027c.3-.824 1.061-1.295 1.77-1.295.844 0 1.348.404 1.58 1.429.327-.79.98-1.429 1.728-1.429 1.918 0 1.918 1.799 1.918 2.857v6.385h-1.144v-6.217c0-.687-.039-1.814-.98-1.814-.531 0-1.363.404-1.363 1.814v6.217h-1.144v-6.217c0-.687-.039-1.814-.98-1.814-.531 0-1.363.404-1.363 1.814v6.217h-1.144V49.89h.002ZM31.609 46.899h1.144v1.614h-1.144v-1.614Zm0 2.992h1.144v9.006h-1.144v-9.006ZM33.461 49.891h1.253l1.36 7.226h.027l1.363-7.226h1.253l-1.973 9.006h-1.307l-1.973-9.006h-.005ZM44.042 58.896h-1.087v-1.058h-.027c-.3.824-1.063 1.295-1.77 1.295-1.918 0-1.918-1.799-1.918-2.857v-6.385h1.144v6.217c0 .687.039 1.814 1.075 1.814.612 0 1.443-.504 1.443-1.814v-6.217h1.144v9.006h-.003ZM49.91 58.896h-1.087v-1.109h-.027c-.149.672-.79 1.346-1.58 1.346-1.728 0-2.382-1.899-2.382-4.739 0-1.882.244-4.739 2.302-4.739.653 0 1.348.487 1.607 1.261h.027V46.9h1.144v11.997h-.004Zm-2.545-.975c1.265 0 1.47-1.477 1.47-3.527 0-1.748-.244-3.527-1.47-3.527-1.061 0-1.333 1.378-1.333 3.527s.273 3.527 1.333 3.527ZM50.971 46.899h1.144v1.614h-1.144v-1.614Zm0 2.992h1.144v9.006h-1.144v-9.006ZM53.163 49.891h1.087v1.058h.027c.3-.824 1.063-1.295 1.77-1.295 1.918 0 1.918 1.799 1.918 2.857v6.385h-1.144v-6.217c0-.687-.039-1.814-1.075-1.814-.612 0-1.443.504-1.443 1.814v6.217h-1.144V49.89h.003ZM59.97 54.562c0 1.378 0 3.462 1.402 3.462 1.09 0 1.239-1.412 1.239-2.084h1.144c0 .958-.463 3.194-2.45 3.194-1.782 0-2.53-1.529-2.53-4.62 0-2.253.353-4.856 2.599-4.856 2.233 0 2.436 2.404 2.436 4.337v.57h-3.84l.002-.002Zm2.642-1.107v-.487c0-1.007-.259-2.201-1.265-2.201-1.197 0-1.333 1.814-1.333 2.353v.336h2.599ZM67.902 56.38c0 .793.205 1.673.995 1.673.727 0 1.014-.729 1.014-1.622 0-1.112-.298-1.687-1.178-1.687h-.451v-1.021h.421c.778 0 1.044-.663 1.044-1.546 0-.651-.236-1.304-.841-1.304-.717 0-.924.765-.924 1.584h-1.107c0-1.687.707-2.606 2.09-2.606.87 0 1.945.497 1.945 2.313 0 .934-.442 1.841-1.158 1.979v.039c.748.076 1.322.831 1.322 2.094 0 1.79-.717 2.798-2.213 2.798-1.312 0-2.07-.804-2.07-2.696h1.113ZM73.736 49.851c1.395 0 2.172 1.099 2.172 4.613s-.778 4.613-2.172 4.613-2.172-1.099-2.172-4.613.778-4.613 2.172-4.613Zm0 8.202c.8 0 1.004-.958 1.004-3.589s-.205-3.591-1.004-3.591-1.004.958-1.004 3.591.205 3.589 1.004 3.589ZM78.578 49.851c1.395 0 2.172 1.099 2.172 4.613s-.778 4.613-2.172 4.613-2.172-1.099-2.172-4.613.778-4.613 2.172-4.613Zm0 8.202c.8 0 1.004-.958 1.004-3.589s-.205-3.591-1.004-3.591-1.004.958-1.004 3.591.205 3.589 1.004 3.589ZM83.315 49.891h1.09v1.058h.027c.3-.824 1.061-1.295 1.77-1.295.844 0 1.348.404 1.58 1.429.327-.79.98-1.429 1.728-1.429 1.918 0 1.918 1.799 1.918 2.857v6.385h-1.144v-6.217c0-.687-.039-1.814-.98-1.814-.531 0-1.363.404-1.363 1.814v6.217h-1.144v-6.217c0-.687-.039-1.814-.98-1.814-.531 0-1.363.404-1.363 1.814v6.217H83.31V49.89h.002ZM97.345 58.325c0 2.689-1.007 3.665-2.477 3.665-.449 0-2.204 0-2.396-2.253h1.144c.053.824.57 1.144 1.17 1.144 1.47 0 1.416-1.395 1.416-2.016V57.69h-.027a1.73 1.73 0 0 1-1.648 1.209c-2.124 0-2.26-3.311-2.26-4.503 0-2.436.531-4.739 2.382-4.739.79 0 1.429.672 1.58 1.378h.027v-1.144h1.087v8.436h.003Zm-3.878-3.931c0 1.46.178 3.293 1.322 3.293 1.239 0 1.482-1.446 1.482-3.293 0-1.748-.244-3.527-1.47-3.527-1.061 0-1.333 1.378-1.333 3.527ZM101.716 47.27h1.144v2.621h1.267V51h-1.267v5.78c0 .721.149 1.007.748 1.007.246 0 .383-.032.502-.049v1.161a3.94 3.94 0 0 1-.927.1c-1.185 0-1.47-.604-1.47-1.782V51h-1.061v-1.109h1.061V47.27h.002ZM104.774 52.612c0-2.05.707-2.957 2.45-2.957 2.219 0 2.219 1.646 2.219 2.587v5.024c0 .37 0 .721.353.721.149 0 .217-.034.273-.083v1.007c-.081.017-.383.083-.666.083-.436 0-.98 0-1.034-1.161h-.027c-.368.807-1.075 1.295-1.756 1.295-1.36 0-1.987-1.007-1.987-2.621 0-1.261.436-2.133 1.375-2.487l1.539-.57c.831-.319.831-.604.831-1.363 0-.841-.41-1.329-1.17-1.329-1.253 0-1.253 1.446-1.253 1.765v.083h-1.144l-.005.005Zm3.525 1.379c-.421.553-1.431.67-1.945 1.058-.368.285-.559.638-.559 1.429 0 .907.259 1.546 1.034 1.546.748 0 1.47-.79 1.47-1.714v-2.319ZM110.864 46.899h1.144v4.016h.027c.259-.773.953-1.261 1.687-1.261 1.973 0 2.219 2.857 2.219 4.739 0 2.538-.695 4.739-2.382 4.739-.79 0-1.429-.672-1.58-1.346h-.027v1.109h-1.087V46.898h-.002Zm2.545 11.022c1.061 0 1.333-1.477 1.333-3.527 0-2.15-.273-3.527-1.333-3.527-1.226 0-1.47 1.782-1.47 3.527 0 1.848.244 3.527 1.47 3.527ZM116.766 46.899h1.144v11.997h-1.144V46.899ZM119.948 54.562c0 1.378 0 3.462 1.402 3.462 1.09 0 1.239-1.412 1.239-2.084h1.144c0 .958-.463 3.194-2.45 3.194-1.782 0-2.53-1.529-2.53-4.62 0-2.253.353-4.856 2.599-4.856 2.233 0 2.436 2.404 2.436 4.337v.57h-3.84l.002-.002Zm2.639-1.107v-.487c0-1.007-.259-2.201-1.265-2.201-1.197 0-1.333 1.814-1.333 2.353v.336h2.599ZM125.028 47.27h1.144v2.621h1.267V51h-1.267v5.78c0 .721.149 1.007.748 1.007.246 0 .383-.032.502-.049v1.161a3.94 3.94 0 0 1-.927.1c-1.185 0-1.47-.604-1.47-1.782V51h-1.061v-1.109h1.061V47.27h.002ZM131.262 52.529c0-1.144-.244-1.765-1.075-1.765-.368 0-1.185.117-1.185 1.378 0 1.058.899 1.261 1.797 1.631.885.37 1.784.755 1.784 2.538 0 1.899-.995 2.823-2.355 2.823-2.477 0-2.504-2.267-2.504-3.194h1.144c0 1.092.244 2.084 1.36 2.084.368 0 1.212-.219 1.212-1.494 0-1.209-.899-1.46-1.784-1.831s-1.797-.687-1.797-2.555c0-1.68 1.061-2.487 2.328-2.487 2.124 0 2.204 1.814 2.219 2.874h-1.144v-.002Z" class="st0"/><path d="M20.329 26.072c6.09-3.486 12.109-12.004 7.273-18.833-4.026-5.681-13.551-9.042-20.119-6.2C-.094 4.32-.823 12.899 1.776 19.821c2.894 7.711 11.578 10.259 18.55 6.253" style="fill:url(#radial-gradient)"/><path d="M20.726 23.527c5.615-3.686 8.494-11.421 4.403-17.207C21.516 1.21 13.951-.809 8.47 2.363 2.761 5.666 1.339 13.487 4.056 19.289c3.035 6.485 10.856 8.033 16.668 4.237" style="mix-blend-mode:screen;fill:url(#radial-gradient1);isolation:isolate"/><path d="M18.413 19.836c3.242-2.128 4.905-6.595 2.543-9.937-2.084-2.95-6.456-4.118-9.62-2.287-3.299 1.909-4.118 6.424-2.55 9.776 1.752 3.744 6.27 4.639 9.627 2.447" style="fill:url(#radial-gradient2)"/><path d="M18.413 19.836c3.242-2.128 4.905-6.595 2.543-9.937-2.084-2.95-6.456-4.118-9.62-2.287-3.299 1.909-4.118 6.424-2.55 9.776 1.752 3.744 6.27 4.639 9.627 2.447" style="fill:url(#radial-gradient3);opacity:.75;mix-blend-mode:screen;isolation:isolate"/><path d="M34.739 5.098v.007c-.3-.024-.604.066-.846.285-.232.21-.353.487-.353.81v16.944c0 .278.102.536.298.753.21.232.487.353.81.353.032 0 .061-.005.093-.007v.007c3.64 0 11.119-1.801 11.119-9.576s-7.479-9.576-11.119-9.576Zm1.014 16.881V7.368c3.101.293 7.902 1.96 7.902 7.304s-4.8 7.014-7.902 7.304v.002ZM60.418 14.894a6.913 6.913 0 0 0-1.458-2.179 6.995 6.995 0 0 0-2.155-1.446 6.607 6.607 0 0 0-2.621-.529c-.904 0-1.78.176-2.599.521a6.913 6.913 0 0 0-2.179 1.458 7.02 7.02 0 0 0-1.446 2.155 6.6 6.6 0 0 0-.529 2.621c0 .904.176 1.78.521 2.599a6.913 6.913 0 0 0 1.458 2.179 6.96 6.96 0 0 0 2.155 1.446 6.6 6.6 0 0 0 2.621.529c.904 0 1.78-.176 2.599-.521a6.913 6.913 0 0 0 2.179-1.458 6.995 6.995 0 0 0 1.446-2.155 6.6 6.6 0 0 0 .529-2.621c0-.904-.176-1.78-.521-2.599Zm-2.043 4.354a4.6 4.6 0 0 1-2.445 2.441 4.56 4.56 0 0 1-3.496-.005 4.573 4.573 0 0 1-2.441-2.445 4.486 4.486 0 0 1-.349-1.743c0-.617.117-1.204.351-1.752a4.572 4.572 0 0 1 2.445-2.441 4.443 4.443 0 0 1 1.743-.349c.617 0 1.204.117 1.752.351a4.6 4.6 0 0 1 2.441 2.445c.232.546.349 1.133.349 1.743 0 .617-.117 1.204-.351 1.752v.002ZM74.736 11.254a1.08 1.08 0 0 0-.932-.514c-.442 0-.795.219-.992.614l-4.654 9.308-4.654-9.308a1.112 1.112 0 0 0-.402-.442 1.108 1.108 0 0 0-1.082-.061c-.397.2-.614.551-.614.992 0 .176.039.342.112.49l5.646 11.295c.2.397.546.617.982.617.21 0 .404-.051.578-.153l.029-.017c.163-.11.295-.256.397-.446l5.649-11.295a1.08 1.08 0 0 0 .112-.49c0-.21-.059-.41-.176-.593h.002l-.002.002ZM88.359 14.894a6.913 6.913 0 0 0-1.458-2.179 6.995 6.995 0 0 0-2.155-1.446 6.607 6.607 0 0 0-2.621-.529c-.904 0-1.78.176-2.599.521a6.913 6.913 0 0 0-2.179 1.458 6.995 6.995 0 0 0-1.446 2.155 6.6 6.6 0 0 0-.529 2.621c0 .904.176 1.78.521 2.599a6.913 6.913 0 0 0 1.458 2.179 6.995 6.995 0 0 0 2.155 1.446 6.6 6.6 0 0 0 2.621.529c.904 0 1.78-.176 2.599-.521a6.87 6.87 0 0 0 1.941-1.231v.648c0 .278.102.536.298.753.21.232.487.353.81.353s.597-.122.81-.356c.195-.217.298-.476.298-.753v-5.649c0-.904-.176-1.78-.521-2.599Zm-2.043 4.354a4.6 4.6 0 0 1-2.445 2.441 4.56 4.56 0 0 1-3.496-.005 4.573 4.573 0 0 1-2.441-2.443 4.443 4.443 0 0 1-.349-1.743c0-.614.117-1.204.353-1.752a4.572 4.572 0 0 1 2.445-2.441 4.433 4.433 0 0 1 1.743-.349c.617 0 1.204.117 1.753.351a4.6 4.6 0 0 1 2.441 2.445c.232.546.349 1.133.349 1.743 0 .617-.117 1.204-.351 1.752h-.003ZM116.107 14.894a6.913 6.913 0 0 0-1.458-2.179 6.995 6.995 0 0 0-2.155-1.446 6.604 6.604 0 0 0-2.619-.529c-.907 0-1.78.176-2.599.521a6.913 6.913 0 0 0-2.179 1.458 6.984 6.984 0 0 0-1.446 2.155 6.6 6.6 0 0 0-.529 2.621c0 .904.176 1.78.521 2.599a6.913 6.913 0 0 0 1.458 2.179 6.984 6.984 0 0 0 2.155 1.446 6.6 6.6 0 0 0 2.621.529c.904 0 1.78-.176 2.599-.521a6.913 6.913 0 0 0 2.179-1.458 6.995 6.995 0 0 0 1.446-2.155 6.607 6.607 0 0 0 .529-2.621c0-.904-.176-1.78-.521-2.599h-.002Zm-2.043 4.354a4.6 4.6 0 0 1-2.445 2.441 4.56 4.56 0 0 1-3.496-.005 4.573 4.573 0 0 1-2.441-2.445 4.484 4.484 0 0 1-.346-1.743c0-.617.117-1.207.351-1.752a4.573 4.573 0 0 1 2.443-2.441 4.433 4.433 0 0 1 1.743-.349c.614 0 1.204.117 1.753.351a4.6 4.6 0 0 1 2.441 2.445c.232.549.349 1.133.349 1.743 0 .617-.117 1.204-.353 1.752l.002.002ZM102.677 20.708c-.212-.212-.478-.322-.773-.322s-.563.105-.79.317a4.605 4.605 0 0 1-1.465.985 4.56 4.56 0 0 1-3.496-.005 4.573 4.573 0 0 1-2.441-2.445 4.484 4.484 0 0 1-.346-1.743v-4.539h5.517c.319 0 .6-.122.81-.353.195-.215.298-.478.298-.753s-.102-.536-.298-.753a1.058 1.058 0 0 0-.81-.353h-5.517V7.179c0-.319-.122-.6-.353-.81a1.114 1.114 0 0 0-1.505 0c-.232.21-.353.487-.353.81v3.565h-1.494c-.319 0-.6.122-.81.353-.195.217-.298.478-.298.753s.102.536.298.753c.21.232.487.353.81.353h1.494v4.539c0 .904.176 1.78.521 2.599a6.913 6.913 0 0 0 1.458 2.179 6.984 6.984 0 0 0 2.155 1.446 6.6 6.6 0 0 0 2.621.529c.904 0 1.78-.176 2.599-.521a6.944 6.944 0 0 0 2.189-1.467c.198-.212.304-.483.304-.776s-.112-.561-.322-.773l-.005-.002Z" class="st5"/><path d="M37.713 42.091h-1.087v-1.109h-.027c-.149.672-.79 1.346-1.58 1.346-1.728 0-2.382-1.899-2.382-4.739 0-1.882.244-4.739 2.302-4.739.653 0 1.348.487 1.607 1.261h.027v-4.016h1.144v11.997h-.004Zm-2.547-.974c1.265 0 1.47-1.477 1.47-3.527 0-1.748-.244-3.527-1.47-3.527-1.061 0-1.333 1.378-1.333 3.527s.273 3.527 1.333 3.527ZM40.968 32.849c2.109 0 2.626 2.201 2.626 4.739s-.531 4.739-2.626 4.739c-2.109 0-2.628-2.201-2.628-4.739s.531-4.739 2.628-4.739Zm1.429 4.737c0-1.948-.232-3.63-1.458-3.63-1.158 0-1.405 1.68-1.405 3.63s.232 3.63 1.405 3.63c1.212 0 1.458-1.68 1.458-3.63ZM44.265 30.094h1.144v11.997h-1.144V30.094ZM51.134 42.091h-1.087v-1.058h-.027c-.3.824-1.063 1.295-1.77 1.295-1.918 0-1.918-1.799-1.918-2.857v-6.385h1.144v6.217c0 .687.039 1.814 1.075 1.814.612 0 1.443-.504 1.443-1.814v-6.217h1.144v9.006h-.003ZM52.541 30.463h1.144v2.621h1.267v1.109h-1.267v5.78c0 .721.149 1.007.748 1.007.246 0 .383-.034.502-.049v1.161a3.94 3.94 0 0 1-.927.1c-1.185 0-1.47-.604-1.47-1.782v-6.217h-1.061v-1.109h1.061v-2.621h.002ZM56.259 37.754c0 1.378 0 3.462 1.402 3.462 1.09 0 1.239-1.412 1.239-2.082h1.144c0 .958-.463 3.194-2.45 3.194-1.782 0-2.53-1.529-2.53-4.62 0-2.253.353-4.856 2.599-4.856 2.233 0 2.436 2.404 2.436 4.335v.57h-3.84l.002-.002Zm2.64-1.109v-.487c0-1.007-.259-2.201-1.265-2.201-1.197 0-1.333 1.816-1.333 2.353v.336H58.9ZM65.621 41.519c0 2.689-1.007 3.665-2.477 3.665-.449 0-2.204 0-2.396-2.253h1.144c.053.824.57 1.144 1.17 1.144 1.47 0 1.416-1.395 1.416-2.016v-1.175h-.027a1.73 1.73 0 0 1-1.648 1.209c-2.124 0-2.26-3.311-2.26-4.503 0-2.436.531-4.739 2.382-4.739.79 0 1.429.672 1.58 1.378h.027v-1.144h1.087v8.436h.003Zm-3.88-3.933c0 1.46.178 3.293 1.322 3.293 1.239 0 1.482-1.446 1.482-3.293 0-1.748-.244-3.527-1.47-3.527-1.061 0-1.333 1.378-1.333 3.527ZM66.525 33.083h1.144v1.346h.027c.327-.858.763-1.58 1.58-1.58.232 0 .395.032.502.1v1.378c-.11-.017-.246-.066-.612-.066-.57 0-1.497.638-1.497 2.133v5.698h-1.144V33.084ZM70.062 35.806c0-2.05.707-2.957 2.45-2.957 2.219 0 2.219 1.646 2.219 2.587v5.024c0 .37 0 .721.353.721.149 0 .217-.034.273-.083v1.007c-.081.017-.383.083-.666.083-.436 0-.98 0-1.034-1.161h-.027c-.368.807-1.075 1.295-1.756 1.295-1.36 0-1.987-1.007-1.987-2.621 0-1.261.436-2.133 1.375-2.487l1.539-.57c.831-.319.831-.604.831-1.36 0-.841-.41-1.329-1.17-1.329-1.253 0-1.253 1.446-1.253 1.765v.083h-1.144l-.005.002Zm3.529 1.378c-.421.553-1.431.672-1.945 1.058-.368.285-.559.638-.559 1.429 0 .907.259 1.546 1.034 1.546.748 0 1.47-.79 1.47-1.714v-2.319ZM75.014 33.083h1.253l1.36 7.226h.027l1.36-7.226h1.253l-1.973 9.006h-1.307l-1.973-9.006h-.002ZM80.704 30.094h1.144v1.614h-1.144v-1.614Zm0 2.989h1.144v9.006h-1.144v-9.006ZM82.774 33.083h1.144v1.346h.027c.327-.858.763-1.58 1.58-1.58.232 0 .395.032.502.1v1.378c-.11-.017-.246-.066-.612-.066-.57 0-1.497.638-1.497 2.133v5.698h-1.144V33.084ZM88.152 39.652h1.107v.244c0 .678.298 1.278.953 1.278.81 0 1.034-.997 1.034-2.058 0-1.048-.227-1.931-.973-1.931-.493 0-.851.332-.953.831l-1.034-.051.359-4.739h3.493v1.163h-2.623l-.236 2.377.019.024c.307-.434.748-.702 1.219-.702 1.516 0 1.897 1.597 1.897 2.989 0 1.814-.666 3.194-2.233 3.194-1.292 0-2.028-.831-2.028-2.428v-.19ZM95.095 33.044c1.395 0 2.172 1.099 2.172 4.613s-.778 4.613-2.172 4.613-2.172-1.099-2.172-4.613.778-4.613 2.172-4.613Zm0 8.204c.8 0 1.004-.958 1.004-3.589s-.205-3.591-1.004-3.591-1.004.958-1.004 3.591.205 3.589 1.004 3.589ZM99.696 33.083h1.09v1.058h.027c.3-.824 1.061-1.295 1.77-1.295.844 0 1.348.404 1.58 1.429.327-.79.98-1.429 1.728-1.429 1.918 0 1.918 1.799 1.918 2.857v6.385h-1.144v-6.217c0-.687-.039-1.814-.98-1.814-.531 0-1.363.404-1.363 1.814v6.217h-1.144v-6.217c0-.687-.039-1.814-.98-1.814-.531 0-1.363.404-1.363 1.814v6.217h-1.144v-9.006h.002ZM113.607 41.519c0 2.689-1.007 3.665-2.477 3.665-.449 0-2.204 0-2.396-2.253h1.144c.053.824.57 1.144 1.17 1.144 1.47 0 1.416-1.395 1.416-2.016v-1.175h-.027a1.73 1.73 0 0 1-1.648 1.209c-2.124 0-2.26-3.311-2.26-4.503 0-2.436.531-4.739 2.382-4.739.79 0 1.429.672 1.58 1.378h.027v-1.144h1.087v8.436h.003Zm-3.88-3.933c0 1.46.178 3.293 1.322 3.293 1.239 0 1.482-1.446 1.482-3.293 0-1.748-.244-3.527-1.47-3.527-1.061 0-1.333 1.378-1.333 3.527ZM114.147 41.987h1.158l2.957-9.184h-1.158l-2.957 9.184Z" class="st0"/></g></g></svg>